<?xml version="1.0" encoding="utf-8"?>
<!-- Generator: Adobe Illustrator 27.5.0, SVG Export Plug-In . SVG Version: 6.00 Build 0)  -->
<svg version="1.1" xmlns="http://www.w3.org/2000/svg" xmlns:xlink="http://www.w3.org/1999/xlink" x="0px" y="0px"
	 viewBox="0 0 500 500" style="enable-background:new 0 0 500 500;" xml:space="preserve">
<g id="Background_Simple">
	<g>
		<path style="fill:#92E3A9;" d="M464.856,277.39c-14.722,39.433-44.804,82.112-87.135,94.748
			c-63.961,19.098-71.602,70.655-186.163,65.873c-17.862-0.744-34.371-3.255-49.538-7.264c-8.153-2.154-15.92-4.753-23.291-7.747
			C51.804,395.892,16.892,336.231,13.994,273.806c-3.825-82.102,53.46-121.236,90.69-144.15
			c37.231-22.914,82.102-111.701,194.76-107.885c17.176,0.589,34.313,2.937,50.919,7.438c37.907,10.259,76.441,32.951,98.834,66.124
			c1.681,2.492,3.285,5.043,4.82,7.641C483.984,153.816,484.93,223.631,464.856,277.39z"/>
		<path style="opacity:0.7;fill:#FFFFFF;" d="M464.856,277.39c-14.722,39.433-44.804,82.112-87.135,94.748
			c-63.961,19.098-71.602,70.655-186.163,65.873c-17.862-0.744-34.371-3.255-49.538-7.264c-8.153-2.154-15.92-4.753-23.291-7.747
			C51.804,395.892,16.892,336.231,13.994,273.806c-3.825-82.102,53.46-121.236,90.69-144.15
			c37.231-22.914,82.102-111.701,194.76-107.885c17.176,0.589,34.313,2.937,50.919,7.438c37.907,10.259,76.441,32.951,98.834,66.124
			c1.681,2.492,3.285,5.043,4.82,7.641C483.984,153.816,484.93,223.631,464.856,277.39z"/>
	</g>
</g>
<g id="Plants">
	<g>
		<path style="fill:#92E3A9;" d="M453.321,318.544c0,0,1.963-9.65-1.492-14.432c-3.455-4.782-9.847-0.013-8.978,5.984
			C443.72,316.093,453.321,318.544,453.321,318.544z"/>
		<path style="fill:#92E3A9;" d="M437.718,360.849c0,0,3.059-15.04-2.325-22.493c-5.384-7.453-15.348-0.021-13.993,9.327
			C422.755,357.03,437.718,360.849,437.718,360.849z"/>
		<path style="fill:#92E3A9;" d="M431.932,385.138c0,0-0.133-15.347-6.949-21.519c-6.816-6.172-15.017,3.169-11.749,12.031
			C416.503,384.511,431.932,385.138,431.932,385.138z"/>
		<path style="fill:#92E3A9;" d="M446.11,399.416c-9.158,0.819-18.512,12.987-18.512,12.987s12.692,8.797,20.639,3.694
			C456.185,410.994,455.268,398.597,446.11,399.416z"/>
		<path style="fill:#92E3A9;" d="M446.764,422.59c-13.102,1.171-26.483,18.579-26.483,18.579s18.157,12.585,29.527,5.285
			C461.178,439.153,459.866,421.419,446.764,422.59z"/>
		<path style="fill:#92E3A9;" d="M426.577,412.508c0.408,0.032,0.64,0.042,0.64,0.042s-0.006-0.732-0.087-1.941
			c1.612-5.652,3.381-12.787,5.492-21.309c0.287-1.157,0.582-2.347,0.881-3.552c3.336,2.017,12.969,7.098,19.45,2.937
			c7.948-5.103,7.03-17.5-2.128-16.681c-6.623,0.592-13.346,7.118-16.561,10.686c1.349-5.41,2.816-11.223,4.419-17.307
			c0.27-1.023,0.567-2.094,0.888-3.202c3.195,2.9,11.11,9.1,17.971,6.506c8.835-3.34,10.514-15.657,1.385-16.759
			c-6.574-0.794-14.469,4.148-18.374,6.977c1.973-6.375,4.565-13.71,7.261-20.938c1.94,1.791,7.165,6.019,11.68,4.311
			c5.668-2.143,6.746-10.045,0.889-10.753c-4.26-0.514-9.373,2.719-11.851,4.524c2.165-5.75,4.366-11.371,6.346-16.323
			c2.243,1.957,7.003,5.418,11.161,3.846c5.668-2.143,6.746-10.045,0.889-10.753c-3.721-0.449-8.095,1.963-10.796,3.784
			c2.899-7.186,5.126-12.477,5.706-13.85c2.327-1.221,9.371-5.075,10.745-7.673c1.651-3.122,0.458-6.992-2.665-8.643
			c-3.122-1.651-6.992-0.458-8.643,2.664c-1.318,2.493-0.652,9.952-0.33,12.858l-0.378-0.161c-0.071,0.168-2.982,7.022-6.796,16.543
			c-0.114,0.093-0.193,0.159-0.193,0.159s0.033,0.035,0.092,0.095c-2.058,5.141-4.372,11.042-6.644,17.081
			c0.391-2.933,0.851-9.269-1.743-12.86c-3.455-4.782-9.847-0.013-8.978,5.984c0.777,5.363,8.532,7.888,10.164,8.362
			c-3.035,8.128-5.947,16.409-8.013,23.343c-0.217,0.176-0.336,0.278-0.336,0.278s0.072,0.075,0.195,0.2
			c-0.412,1.396-0.789,2.737-1.124,4.007c-2.281,8.655-4.292,16.775-6.067,23.938c-1.663,6.714-3.113,12.563-4.439,17.497
			c-0.72-4.986-2.417-11.771-6.418-15.395c-6.816-6.172-15.017,3.169-11.749,12.031c2.501,6.782,12.119,8.739,16.498,9.284
			c-0.254,0.849-0.505,1.657-0.752,2.425c-0.989,3.066-2.908,11.582-4.904,20.948c-0.741-7.12-2.955-19.137-9.567-25.124
			c-9.751-8.829-21.484,4.534-16.808,17.211c3.926,10.645,20.114,12.983,25.205,13.459c-2.737,13.077-5.307,26.066-5.503,27.061
			l1.512,0.298c0.09-0.455,9.02-45.591,11.533-53.38C426.01,414.384,426.292,413.468,426.577,412.508z"/>
	</g>
	<g>
		<path style="fill:#92E3A9;" d="M193.271,165.744c0,0-4.56-9.89-10.524-11.18c-5.964-1.29-8.247,8.021-3.665,12.464
			C183.664,171.47,193.271,165.744,193.271,165.744z"/>
		<path style="fill:#92E3A9;" d="M207.41,214.813c0,0-7.108-15.415-16.403-17.426c-9.296-2.01-12.854,12.501-5.712,19.425
			C192.436,223.737,207.41,214.813,207.41,214.813z"/>
		<path style="fill:#92E3A9;" d="M218.181,240.397c0,0-9.976-13.075-19.645-12.817c-9.669,0.258-10.527,14.972-2.097,19.918
			C204.869,252.445,218.181,240.397,218.181,240.397z"/>
		<path style="fill:#92E3A9;" d="M239.221,241.098c-7.136,8.173-7.14,26.256-7.14,26.256s16.273-2.795,19.642-13.662
			C255.092,242.826,246.357,232.925,239.221,241.098z"/>
		<path style="fill:#92E3A9;" d="M254.664,260.472c-10.209,11.693-10.215,37.562-10.215,37.562s23.281-3.999,28.101-19.545
			C277.37,262.943,264.873,248.779,254.664,260.472z"/>
		<path style="fill:#92E3A9;" d="M231.294,268.278c0.362-0.305,0.562-0.486,0.562-0.486s-0.476-0.624-1.321-1.596
			c-2.284-6.171-5.39-13.742-9.102-22.785c-0.504-1.228-1.022-2.491-1.546-3.77c4.087-0.988,15.413-4.481,18.161-13.342
			c3.369-10.867-5.366-20.767-12.502-12.594c-5.161,5.911-6.591,17-6.987,22.689c-2.349-5.748-4.857-11.938-7.427-18.472
			c-0.432-1.099-0.871-2.261-1.315-3.475c4.537-0.115,15.144-1.245,19.217-9.07c5.244-10.076-1.267-22.025-9.613-15.526
			c-6.01,4.68-9.439,15.366-10.888,20.98c-2.447-7.086-4.993-15.501-7.383-23.91c2.775-0.044,9.863-0.674,12.544-5.824
			c3.365-6.464-0.813-14.132-6.168-9.962c-3.895,3.033-6.094,9.982-7.007,13.553c-1.885-6.706-3.656-13.329-5.183-19.198
			c3.134-0.148,9.342-1.058,11.81-5.8c3.365-6.465-0.813-14.132-6.168-9.962c-3.402,2.649-5.511,8.29-6.6,12.057
			c-2.193-8.538-3.732-14.899-4.128-16.552c1.162-2.947,4.579-12.004,4.058-15.356c-0.626-4.029-4.111-6.38-7.785-5.251
			c-3.674,1.129-6.144,5.31-5.519,9.339c0.5,3.217,5.851,9.081,7.989,11.315l-0.42,0.17c0.048,0.202,2.019,8.464,4.947,19.755
			c-0.036,0.173-0.059,0.294-0.059,0.294s0.05,0.003,0.138,0.007c1.583,6.095,3.439,13.052,5.421,20.092
			c-1.559-2.838-5.246-8.657-9.725-9.625c-5.964-1.29-8.247,8.021-3.665,12.464c4.098,3.973,12.208-0.183,13.879-1.107
			c2.685,9.458,5.572,18.947,8.3,26.588c-0.068,0.328-0.103,0.513-0.103,0.513s0.108,0.006,0.292,0.013
			c0.553,1.535,1.099,2.995,1.635,4.358c3.655,9.296,7.191,17.911,10.311,25.513c2.924,7.125,5.471,13.332,7.533,18.652
			c-3.807-3.696-9.588-8.141-15.265-7.989c-9.669,0.258-10.527,14.972-2.097,19.918c6.452,3.786,15.756-2.378,19.771-5.482
			c0.333,0.936,0.643,1.835,0.929,2.697c1.143,3.441,5.012,12.321,9.363,21.995c-5.197-5.511-14.773-14.029-24.154-13.779
			c-13.833,0.369-15.06,21.419-3,28.496c10.127,5.942,25.173-5.254,29.739-8.998c6.115,13.466,12.314,26.72,12.79,27.736
			l1.457-0.977c-0.217-0.464-21.759-46.522-24.663-55.262C232.026,270.352,231.672,269.335,231.294,268.278z"/>
	</g>
	<g>
		<path style="fill:#92E3A9;" d="M188.647,340.908c0,0-4.97-7.633-10.062-7.979c-5.092-0.346-5.855,7.635-1.526,10.757
			C181.389,346.808,188.647,340.908,188.647,340.908z"/>
		<path style="fill:#92E3A9;" d="M206.281,379.804c0,0-7.746-11.897-15.682-12.436c-7.936-0.54-9.125,11.9-2.378,16.766
			C194.97,389,206.281,379.804,206.281,379.804z"/>
		<path style="fill:#92E3A9;" d="M218.289,399.674c0,0-9.837-9.614-17.807-8.231c-7.971,1.383-6.901,13.663,0.674,16.737
			C208.73,411.254,218.289,399.674,218.289,399.674z"/>
		<path style="fill:#92E3A9;" d="M235.786,397.709c-4.917,7.627-2.733,22.591-2.733,22.591s13.129-4.281,14.602-13.681
			C249.129,397.219,240.702,390.082,235.786,397.709z"/>
		<path style="fill:#92E3A9;" d="M250.909,411.874c-7.034,10.911-3.91,32.32-3.91,32.32s18.782-6.125,20.891-19.573
			C269.997,411.173,257.943,400.963,250.909,411.874z"/>
		<path style="fill:#92E3A9;" d="M232.513,421.16c0.263-0.296,0.407-0.47,0.407-0.47s-0.469-0.459-1.286-1.161
			c-2.637-4.83-6.123-10.72-10.288-17.755c-0.565-0.955-1.147-1.938-1.736-2.933c3.263-1.312,12.213-5.572,13.415-13.238
			c1.474-9.4-6.952-16.537-11.869-8.91c-3.556,5.516-3.398,14.866-3.038,19.621c-2.639-4.472-5.463-9.292-8.38-14.388
			c-0.491-0.857-0.994-1.766-1.509-2.717c3.74-0.644,12.382-2.862,14.806-9.83c3.121-8.972-3.713-18.074-9.833-11.686
			c-4.408,4.6-5.953,13.857-6.472,18.679c-2.882-5.568-6.006-12.223-9.002-18.893c2.291-0.372,8.081-1.751,9.676-6.337
			c2.003-5.757-2.382-11.596-6.309-7.498c-2.857,2.981-3.836,8.997-4.16,12.063c-2.371-5.321-4.637-10.589-6.611-15.26
			c2.576-0.502,7.603-2.005,9.072-6.228c2.003-5.757-2.382-11.596-6.309-7.498c-2.495,2.604-3.558,7.527-4.003,10.776
			c-2.848-6.801-4.89-11.878-5.418-13.198c0.605-2.579,2.337-10.487,1.501-13.199c-1.005-3.258-4.174-4.783-7.077-3.404
			c-2.904,1.378-4.442,5.137-3.437,8.396c0.803,2.602,5.94,6.807,7.98,8.398l-0.327,0.191c0.064,0.162,2.694,6.76,6.483,15.75
			c-0.009,0.147-0.014,0.251-0.014,0.251s0.041-0.004,0.115-0.011c2.047,4.853,4.424,10.385,6.916,15.971
			c-1.633-2.16-5.388-6.529-9.212-6.789c-5.092-0.346-5.855,7.635-1.525,10.757c3.872,2.792,10.081-1.628,11.351-2.595
			c3.366,7.502,6.902,15.005,10.084,20.999c-0.017,0.28-0.023,0.437-0.023,0.437s0.09-0.008,0.243-0.024
			c0.643,1.204,1.272,2.346,1.88,3.409c4.149,7.25,8.117,13.953,11.618,19.866c3.282,5.542,6.139,10.371,8.489,14.524
			c-3.598-2.598-8.919-5.577-13.599-4.765c-7.971,1.383-6.901,13.663,0.674,16.737c5.797,2.353,12.751-3.874,15.698-6.928
			c0.389,0.734,0.754,1.441,1.095,2.119c1.362,2.709,5.638,9.59,10.408,17.069c-4.967-3.932-13.922-9.823-21.655-8.481
			c-11.403,1.978-9.872,19.546,0.964,23.944c9.099,3.693,20.197-7.393,23.522-11.043c6.689,10.404,13.422,20.623,13.938,21.405
			l1.087-0.984c-0.236-0.358-23.633-35.867-27.093-42.749C233.369,422.788,232.954,421.989,232.513,421.16z"/>
	</g>
	<g>
		<path style="fill:#92E3A9;" d="M453.754,151.194c0,0,1.945-8.899-1.385-12.767c-3.329-3.868-9.547,1.193-8.73,6.468
			C444.457,150.17,453.754,151.194,453.754,151.194z"/>
		<path style="fill:#92E3A9;" d="M438.445,191.063c0,0,3.031-13.869-2.158-19.898c-5.189-6.029-14.88,1.859-13.606,10.081
			C423.955,189.467,438.445,191.063,438.445,191.063z"/>
		<path style="fill:#92E3A9;" d="M432.732,213.565c0,0-0.063-13.755-6.645-18.458c-6.582-4.704-14.573,4.681-11.443,12.233
			C417.774,214.891,432.732,213.565,432.732,213.565z"/>
		<path style="fill:#92E3A9;" d="M446.416,224.642c-8.883,1.855-18.003,13.918-18.003,13.918s12.267,6.341,19.995,0.789
			C456.135,233.797,455.299,222.786,446.416,224.642z"/>
		<path style="fill:#92E3A9;" d="M446.951,245.356c-12.708,2.654-25.756,19.912-25.756,19.912s17.55,9.071,28.605,1.129
			C460.855,258.454,459.659,242.702,446.951,245.356z"/>
		<path style="fill:#92E3A9;" d="M427.422,238.779c0.395-0.021,0.62-0.041,0.62-0.041s-0.003-0.656-0.076-1.731
			c1.588-5.269,3.333-11.887,5.417-19.793c0.283-1.073,0.574-2.177,0.869-3.295c3.225,1.402,12.543,4.782,18.845,0.255
			c7.727-5.552,6.891-16.563-1.991-14.707c-6.424,1.342-12.97,8.02-16.103,11.615c1.331-5.02,2.779-10.415,4.359-16.07
			c0.266-0.951,0.559-1.948,0.875-2.982c3.085,2.211,10.733,6.806,17.396,3.638c8.58-4.078,10.26-15.335,1.415-15.207
			c-6.37,0.092-14.046,5.493-17.844,8.508c1.941-5.962,4.485-12.86,7.13-19.676c1.874,1.37,6.921,4.524,11.306,2.439
			c5.505-2.617,6.583-9.839,0.908-9.757c-4.128,0.06-9.099,3.587-11.509,5.51c2.123-5.425,4.282-10.737,6.222-15.423
			c2.166,1.481,6.766,4.005,10.805,2.085c5.505-2.617,6.583-9.839,0.908-9.757c-3.606,0.052-7.857,2.752-10.483,4.717
			c2.842-6.803,5.023-11.823,5.592-13.126c2.262-1.381,9.108-5.7,10.451-8.2c1.614-3.004,0.474-6.33-2.546-7.429
			c-3.02-1.099-6.777,0.445-8.391,3.448c-1.289,2.399-0.675,9.01-0.375,11.578l-0.366-0.098c-0.07,0.159-2.921,6.665-6.66,15.676
			c-0.111,0.097-0.188,0.166-0.188,0.166s0.032,0.027,0.089,0.074c-2.018,4.865-4.287,10.443-6.515,16.139
			c0.391-2.68,0.865-8.421-1.635-11.326c-3.329-3.868-9.547,1.193-8.73,6.468c0.731,4.717,8.238,6.034,9.819,6.26
			c-2.978,7.664-5.836,15.451-7.869,21.925c-0.211,0.185-0.327,0.29-0.327,0.29s0.069,0.059,0.188,0.156
			c-0.405,1.303-0.777,2.553-1.106,3.733c-2.249,8.045-4.233,15.577-5.985,22.222c-1.642,6.228-3.072,11.654-4.379,16.243
			c-0.677-4.386-2.292-10.266-6.157-13.028c-6.582-4.704-14.573,4.681-11.443,12.233c2.396,5.779,11.712,6.358,15.956,6.312
			c-0.25,0.792-0.496,1.549-0.74,2.268c-0.972,2.872-2.869,10.748-4.844,19.397c-0.688-6.298-2.783-16.81-9.168-21.373
			c-9.416-6.729-20.849,6.697-16.37,17.501c3.761,9.071,19.446,9.188,24.38,8.992c-2.71,12.069-5.257,24.038-5.452,24.955
			l1.464,0.083c0.089-0.419,8.94-42.012,11.41-49.308C426.864,240.532,427.141,239.676,427.422,238.779z"/>
	</g>
</g>
<g id="Graphics">
	<g style="opacity:0.3;">
		<path style="fill:none;stroke:#000000;stroke-linecap:round;stroke-linejoin:round;stroke-miterlimit:10;" d="M196.209,50.039
			v14.214c0,0.663-0.537,1.2-1.2,1.2h-69.022c-0.663,0-1.2-0.538-1.2-1.2V22.242c0-0.663,0.537-1.2,1.2-1.2h69.022
			c0.663,0,1.2,0.537,1.2,1.2v23.844"/>
		<polyline style="fill:none;stroke:#000000;stroke-linecap:round;stroke-linejoin:round;stroke-miterlimit:10;" points="
			140.637,32.445 196.209,32.445 196.209,42.047 124.787,42.047 124.787,32.445 135.695,32.445 		"/>
		
			<rect x="134.39" y="49.249" style="fill:none;stroke:#000000;stroke-linecap:round;stroke-linejoin:round;stroke-miterlimit:10;" width="32.409" height="11.403"/>
		
			<rect x="170.4" y="48.649" style="fill:none;stroke:#000000;stroke-linecap:round;stroke-linejoin:round;stroke-miterlimit:10;" width="10.803" height="12.003"/>
	</g>
	<g style="opacity:0.3;">
		<polyline style="fill:none;stroke:#000000;stroke-linecap:round;stroke-linejoin:round;stroke-miterlimit:10;" points="
			36.996,309.235 18.463,309.235 18.463,372.488 20.082,369.741 21.721,372.521 21.868,372.521 23.507,369.741 25.146,372.521 
			25.292,372.521 26.931,369.741 28.57,372.521 28.717,372.521 30.356,369.741 31.995,372.521 32.141,372.521 33.78,369.741 
			35.419,372.521 35.566,372.521 37.205,369.741 38.844,372.521 38.99,372.521 40.629,369.741 42.268,372.521 42.415,372.521 
			44.054,369.741 45.693,372.521 45.839,372.521 47.478,369.741 49.117,372.521 49.264,372.521 50.903,369.741 52.542,372.521 
			52.688,372.521 54.327,369.741 55.966,372.521 56.113,372.521 57.752,369.741 59.391,372.521 59.513,372.521 59.513,309.235 
			41.629,309.235 		"/>
		
			<line style="fill:none;stroke:#000000;stroke-linecap:round;stroke-linejoin:round;stroke-miterlimit:10;" x1="23.75" y1="322.75" x2="54.25" y2="322.75"/>
		
			<line style="fill:none;stroke:#000000;stroke-linecap:round;stroke-linejoin:round;stroke-miterlimit:10;" x1="23.75" y1="330.25" x2="54.25" y2="330.25"/>
		
			<line style="fill:none;stroke:#000000;stroke-linecap:round;stroke-linejoin:round;stroke-miterlimit:10;" x1="23.75" y1="337.75" x2="54.25" y2="337.75"/>
		
			<line style="fill:none;stroke:#000000;stroke-linecap:round;stroke-linejoin:round;stroke-miterlimit:10;" x1="23.75" y1="345.25" x2="54.25" y2="345.25"/>
		
			<line style="fill:none;stroke:#000000;stroke-linecap:round;stroke-linejoin:round;stroke-miterlimit:10;" x1="50.314" y1="358.5" x2="54.25" y2="358.5"/>
		
			<line style="fill:none;stroke:#000000;stroke-linecap:round;stroke-linejoin:round;stroke-miterlimit:10;" x1="23.75" y1="358.5" x2="46.261" y2="358.5"/>
	</g>
	<g style="opacity:0.3;">
		
			<circle style="fill:none;stroke:#000000;stroke-linecap:round;stroke-linejoin:round;stroke-miterlimit:10;" cx="152.537" cy="109.503" r="13.803"/>
		
			<circle style="fill:none;stroke:#000000;stroke-linecap:round;stroke-linejoin:round;stroke-miterlimit:10;" cx="152.537" cy="109.503" r="10.555"/>
		<g>
			<path d="M151.611,103.482v-0.926h1.603v0.926c1.389,0.285,2.101,1.354,2.101,3.045v0.392h-1.852v-0.517
				c0-0.89-0.357-1.228-0.979-1.228c-0.624,0-0.98,0.338-0.98,1.228c0,2.564,3.829,2.689,3.829,6.251
				c0,1.691-0.73,2.778-2.119,3.063v0.908h-1.603v-0.908c-1.406-0.285-2.119-1.372-2.119-3.063v-0.855h1.852v0.979
				c0,0.89,0.392,1.211,1.015,1.211c0.623,0,1.015-0.321,1.015-1.211c0-2.564-3.829-2.689-3.829-6.251
				C149.546,104.853,150.24,103.785,151.611,103.482z"/>
		</g>
	</g>
	<g style="opacity:0.3;">
		
			<circle style="fill:none;stroke:#000000;stroke-linecap:round;stroke-linejoin:round;stroke-miterlimit:10;" cx="70.032" cy="396.101" r="13.803"/>
		
			<circle style="fill:none;stroke:#000000;stroke-linecap:round;stroke-linejoin:round;stroke-miterlimit:10;" cx="70.032" cy="396.101" r="10.555"/>
		<g>
			<path d="M69.107,390.08v-0.926h1.603v0.926c1.389,0.285,2.101,1.354,2.101,3.045v0.392h-1.852V393
				c0-0.89-0.357-1.228-0.979-1.228C69.356,391.772,69,392.11,69,393c0,2.564,3.829,2.689,3.829,6.251
				c0,1.692-0.73,2.778-2.119,3.063v0.908h-1.603v-0.908c-1.406-0.285-2.119-1.372-2.119-3.063v-0.855h1.852v0.979
				c0,0.89,0.392,1.211,1.015,1.211c0.623,0,1.015-0.32,1.015-1.211c0-2.564-3.829-2.689-3.829-6.251
				C67.041,391.451,67.736,390.383,69.107,390.08z"/>
		</g>
	</g>
	<g style="opacity:0.3;">
		
			<circle style="fill:none;stroke:#000000;stroke-linecap:round;stroke-linejoin:round;stroke-miterlimit:10;" cx="38.032" cy="419.101" r="13.803"/>
		
			<circle style="fill:none;stroke:#000000;stroke-linecap:round;stroke-linejoin:round;stroke-miterlimit:10;" cx="38.032" cy="419.101" r="10.555"/>
		<g>
			<path d="M37.107,413.08v-0.926h1.603v0.926c1.389,0.285,2.101,1.354,2.101,3.045v0.392h-1.852V416
				c0-0.89-0.357-1.228-0.979-1.228C37.356,414.772,37,415.11,37,416c0,2.564,3.829,2.689,3.829,6.251
				c0,1.692-0.73,2.778-2.119,3.063v0.908h-1.603v-0.908c-1.407-0.285-2.119-1.372-2.119-3.063v-0.855h1.852v0.979
				c0,0.89,0.391,1.211,1.015,1.211c0.623,0,1.015-0.32,1.015-1.211c0-2.564-3.829-2.689-3.829-6.251
				C35.041,414.451,35.736,413.383,37.107,413.08z"/>
		</g>
	</g>
	<g style="opacity:0.3;">
		<g>
			<polyline style="fill:none;stroke:#000000;stroke-linecap:round;stroke-linejoin:round;stroke-miterlimit:10;" points="
				47.172,59.858 36.668,43.925 77.231,17.181 84.581,28.329 			"/>
			<polyline style="fill:none;stroke:#000000;stroke-linecap:round;stroke-linejoin:round;stroke-miterlimit:10;" points="
				54.008,36.885 76.169,22.274 80.808,29.31 			"/>
			<polyline style="fill:none;stroke:#000000;stroke-linecap:round;stroke-linejoin:round;stroke-miterlimit:10;" points="
				44.61,49.267 41.767,44.955 43.251,43.977 			"/>
		</g>
		<g>
			<polyline style="fill:none;stroke:#000000;stroke-linecap:round;stroke-linejoin:round;stroke-miterlimit:10;" points="
				79.637,56.103 49.956,64.079 43.69,40.766 90.612,28.156 96.877,51.469 82.957,55.21 			"/>
			
				<rect x="61.88" y="25.515" transform="matrix(0.2595 0.9657 -0.9657 0.2595 96.5796 -33.7267)" style="fill:none;stroke:#000000;stroke-linecap:round;stroke-linejoin:round;stroke-miterlimit:10;" width="16.807" height="41.206"/>
			<path style="fill:none;stroke:#000000;stroke-linecap:round;stroke-linejoin:round;stroke-miterlimit:10;" d="M71.275,49.807
				c-3.097,0.832-6.051-0.145-6.598-2.182c-0.548-2.037,1.519-4.363,4.616-5.196c3.097-0.832,6.051,0.145,6.598,2.182
				S74.372,48.974,71.275,49.807z"/>
		</g>
	</g>
</g>
<g id="Character">
	<g>
		<g>
			<g>
				
					<rect x="31.993" y="184.886" transform="matrix(0.694 -0.72 0.72 0.694 -131.6763 89.3716)" style="fill:#92E3A9;stroke:#263238;stroke-linecap:round;stroke-linejoin:round;stroke-miterlimit:10;" width="14.608" height="29.401"/>
				
					<rect x="34.212" y="187.119" transform="matrix(0.694 -0.72 0.72 0.694 -131.6753 89.3701)" style="fill:#FFFFFF;stroke:#263238;stroke-linecap:round;stroke-linejoin:round;stroke-miterlimit:10;" width="10.17" height="24.935"/>
				<path style="fill:#FFFFFF;stroke:#263238;stroke-linecap:round;stroke-linejoin:round;stroke-miterlimit:10;" d="
					M40.901,197.923c1.397,1.347,1.811,3.183,0.925,4.102c-0.886,0.919-2.737,0.573-4.134-0.774
					c-1.397-1.347-1.811-3.183-0.925-4.102C37.653,196.23,39.504,196.576,40.901,197.923z"/>
			</g>
			<g>
				
					<rect x="35.709" y="182.541" transform="matrix(0.8551 -0.5185 0.5185 0.8551 -96.0287 50.8795)" style="fill:#92E3A9;stroke:#263238;stroke-linecap:round;stroke-linejoin:round;stroke-miterlimit:10;" width="14.608" height="29.401"/>
				
					<rect x="37.928" y="184.774" transform="matrix(0.8551 -0.5185 0.5185 0.8551 -96.0295 50.8802)" style="fill:#FFFFFF;stroke:#263238;stroke-linecap:round;stroke-linejoin:round;stroke-miterlimit:10;" width="10.17" height="24.935"/>
				<path style="fill:#92E3A9;stroke:#263238;stroke-linecap:round;stroke-linejoin:round;stroke-miterlimit:10;" d="
					M44.989,196.044c1.006,1.659,0.937,3.541-0.155,4.203c-1.091,0.662-2.792-0.147-3.798-1.806
					c-1.006-1.659-0.937-3.541,0.155-4.203C42.283,193.576,43.983,194.384,44.989,196.044z"/>
			</g>
			<g>
				
					<rect x="41.509" y="180.81" transform="matrix(0.9904 -0.1382 0.1382 0.9904 -26.5431 8.6187)" style="fill:#92E3A9;stroke:#263238;stroke-linecap:round;stroke-linejoin:round;stroke-miterlimit:10;" width="14.608" height="29.401"/>
				
					<rect x="43.728" y="183.043" transform="matrix(0.9904 -0.1382 0.1382 0.9904 -26.5435 8.6189)" style="fill:#FFFFFF;stroke:#263238;stroke-linecap:round;stroke-linejoin:round;stroke-miterlimit:10;" width="10.17" height="24.935"/>
				<path style="fill:#92E3A9;stroke:#263238;stroke-linecap:round;stroke-linejoin:round;stroke-miterlimit:10;" d="
					M51.102,195.191c0.268,1.922-0.54,3.623-1.804,3.799c-1.264,0.176-2.507-1.239-2.775-3.16c-0.268-1.922,0.54-3.623,1.804-3.799
					C49.592,191.854,50.834,193.269,51.102,195.191z"/>
			</g>
			<g>
				
					<rect x="46.071" y="183.682" transform="matrix(0.973 0.231 -0.231 0.973 47.2635 -6.9638)" style="fill:#92E3A9;stroke:#263238;stroke-linecap:round;stroke-linejoin:round;stroke-miterlimit:10;" width="14.608" height="29.401"/>
				
					<rect x="48.29" y="185.915" transform="matrix(0.973 0.231 -0.231 0.973 47.2639 -6.9638)" style="fill:#FFFFFF;stroke:#263238;stroke-linecap:round;stroke-linejoin:round;stroke-miterlimit:10;" width="10.17" height="24.935"/>
				<path style="fill:#92E3A9;stroke:#263238;stroke-linecap:round;stroke-linejoin:round;stroke-miterlimit:10;" d="
					M55.624,198.917c-0.448,1.888-1.818,3.179-3.06,2.884c-1.242-0.295-1.886-2.064-1.437-3.952c0.448-1.888,1.818-3.179,3.06-2.884
					C55.428,195.259,56.072,197.029,55.624,198.917z"/>
			</g>
		</g>
		<path style="fill:#FFFFFF;stroke:#263238;stroke-linecap:round;stroke-linejoin:round;stroke-miterlimit:10;" d="M83.639,279.918
			c0,0-3.234,4.116-4.116,23.52c-0.882,19.404,12.054,47.334,12.642,55.566c0.588,8.232,1.47,15.876,1.47,15.876
			s-2.646,11.466,0.294,24.108c2.94,12.642,12.054,46.452,12.054,46.452s-7.056,14.7-7.056,15.582c0,0.882-3.528,2.646-3.822,4.998
			c-0.294,2.352,0,3.528,0,3.528h23.226c0,0,1.47-2.058,1.47-6.762c0-4.704-3.234-25.872-3.234-25.872l0.294-72.323v-47.333
			l29.988,77.615c0,0,8.694,26.442,23.218,57.817c0.618,1.334,4.704,12.054,9.408,15.582c4.704,3.528,9.114,4.41,9.408-0.882
			c0.294-5.292-3.528-16.758-7.35-19.992c-3.822-3.234-8.82-10.29-8.82-11.466s-14.156-89.952-14.156-89.952l-10.238-50.772
			c0,0,0.735-5.145-1.103-13.156c-1.837-8.011-13.009-7.129-13.009-7.129l-46.746-2.058L83.639,279.918z"/>
		<path style="fill:#263238;stroke:#263238;stroke-linecap:round;stroke-linejoin:round;stroke-miterlimit:10;" d="M158.556,345.977
			l-10.237-50.772c0,0,0.735-5.145-1.103-13.156c-1.837-8.011-13.009-7.129-13.009-7.129l-46.746-2.058l-3.822,7.056
			c0,0-3.234,4.116-4.116,23.52c-0.882,19.404,12.054,47.333,12.642,55.566c0.588,8.232,1.47,15.876,1.47,15.876
			s-2.646,11.466,0.294,24.108c0.968,4.163,2.607,10.625,4.368,17.416c3.292,0.437,9.886,1.028,18.352,0.335l0.212-52.148v-47.334
			l29.988,77.615c0,0,4.033,11.492,8.498,22.436c4.8,0.081,9.391-0.441,13.594-2.648
			C164.245,388.808,158.556,345.977,158.556,345.977z"/>
		<path style="fill:#263238;stroke:#263238;stroke-linecap:round;stroke-linejoin:round;stroke-miterlimit:10;" d="M119.801,462.784
			c0-1.975-0.571-6.855-1.232-11.85c-2.381,2.947-7.123,8.321-11.116,9.792c-4.364,1.608-7.284,0.348-8.356-0.282
			c-0.109,0.294-0.17,0.495-0.17,0.576c0,0.882-3.528,2.646-3.822,4.998c-0.294,2.352,0,3.528,0,3.528h23.226
			C118.331,469.546,119.801,467.488,119.801,462.784z"/>
		<path style="fill:#263238;stroke:#263238;stroke-linecap:round;stroke-linejoin:round;stroke-miterlimit:10;" d="M181.533,447.396
			c-0.09-0.076-0.184-0.165-0.275-0.245c1.39,4.093,2.423,9.952-1.489,12.299c-2.336,1.401-4.948,0.295-7.251-1.544
			c1.737,3.688,4.194,8.293,6.956,10.364c4.704,3.528,9.114,4.41,9.408-0.882C189.177,462.095,185.355,450.629,181.533,447.396z"/>
		<g>
			<path style="fill:#FFFFFF;stroke:#263238;stroke-linecap:round;stroke-linejoin:round;stroke-miterlimit:10;" d="
				M102.676,183.487c0,0,1.323,6.395,1.544,9.922c0.22,3.528-5.072,4.63-5.072,4.63s-15.214,4.189-15.876,7.276
				c-0.661,3.087-13.891,44.982-13.891,44.982c-3.308-6.615-10.339-9.908-13.891-15.435c-3.682-5.729-5.292-9.04-5.292-9.04
				s1.323-3.307,1.323-5.071c0-1.764-1.102-3.307-1.102-3.307s3.087-1.103,3.087-2.646c0-1.543-2.025-4.848-2.646-5.512
				c-2.311-2.471-6.174,0.882-6.174,0.882s1.543-2.646,3.528-4.19c1.985-1.543,3.969-3.748,3.528-4.63
				c-0.441-0.882-2.205-0.441-5.071,2.205c-2.867,2.646-6.615,6.174-6.615,6.174s1.544-3.528,2.646-6.174
				c1.102-2.646,3.528-2.866,3.307-4.41c-0.221-1.544-3.087-0.661-5.512,2.425c-2.425,3.087-3.749,8.379-3.749,10.584
				c0,2.205,4.41,5.071,6.174,8.599c1.764,3.528,3.969,10.143,4.851,13.45c0.882,3.307,6.835,18.522,8.599,24.034
				c1.764,5.512,11.686,13.23,14.773,11.245s18.081-26.46,18.081-26.46l3.076,12.767l-10.573,26.922c0,0,16.758,8.379,39.249,6.835
				c22.491-1.544,26.239-7.497,26.239-7.497s-0.717-5.868-3.657-14.503c-1.877-5.515-6.707-15.926-6.707-17.249
				c0-1.323,3.307-13.891,3.307-13.891s17.86,22.932,21.388,24.255c3.528,1.323,43.218-1.984,43.218-1.984s3.528,1.764,5.954,2.425
				c2.425,0.661,12.789,1.103,14.332,0.661c1.543-0.441,0.661-1.984,0.661-1.984s4.41,0.221,4.41-1.323
				c0-1.543-1.323-1.984-1.323-1.984s1.592,0.147,1.592-1.396c0-1.544-1.702-1.873-1.702-1.873s0.661-0.882-0.661-1.764
				c-1.323-0.882-9.371-4.228-9.371-4.228s3.969-0.441,3.969-1.764c0-1.323-11.686-0.882-13.009,0
				c-1.323,0.882-6.615,5.953-6.615,5.953s-27.783-3.087-30.208-3.969c-2.425-0.882-8.158-2.425-8.158-2.425
				s-14.773-37.044-18.963-41.233c-4.189-4.189-9.261-6.174-13.671-6.615c-4.41-0.441-9.04-1.984-9.04-1.984l-3.307-21.168
				C119.654,174.005,111.716,183.707,102.676,183.487z"/>
			<path style="fill:#92E3A9;stroke:#263238;stroke-linecap:round;stroke-linejoin:round;stroke-miterlimit:10;" d="
				M172.794,247.431c-2.425-0.882-8.158-2.425-8.158-2.425s-14.773-37.044-18.963-41.233c-4.189-4.189-9.261-6.174-13.671-6.615
				c-4.41-0.441-9.04-1.984-9.04-1.984l-3.307-21.168c0,0-7.938,9.702-16.978,9.481c0,0,1.323,6.395,1.544,9.922
				c0.22,3.528-5.072,4.63-5.072,4.63s-15.214,4.189-15.876,7.276c-0.661,3.087-13.891,44.982-13.891,44.982
				c-1.046-2.092-2.465-3.851-4.028-5.454l0.059,0.383l-0.915,0.861l-9.292,8.746c0.474,1.331,0.877,2.499,1.167,3.403
				c1.764,5.512,11.686,13.23,14.773,11.245s18.081-26.46,18.081-26.46l3.076,12.767l-10.573,26.922c0,0,16.758,8.379,39.249,6.835
				c22.491-1.544,26.239-7.497,26.239-7.497s-1.452-8.807-4.575-16.34c-2.231-5.381-5.788-14.089-5.788-15.412
				c0-1.323,3.307-13.891,3.307-13.891s17.86,22.932,21.388,24.255c1.473,0.552,9.247,0.297,17.804-0.187l1.383-11.751
				C176.714,248.186,173.543,247.704,172.794,247.431z"/>
			<g>
				<path style="fill:none;stroke:#263238;stroke-linecap:round;stroke-linejoin:round;stroke-miterlimit:10;" d="M127.819,235.83
					c-5.867,2.597-14.591,6.527-20.723,9.593"/>
				<path style="fill:none;stroke:#263238;stroke-linecap:round;stroke-linejoin:round;stroke-miterlimit:10;" d="M134.143,233.059
					c0,0-1.264,0.546-3.306,1.441"/>
				
					<line style="fill:none;stroke:#263238;stroke-linecap:round;stroke-linejoin:round;stroke-miterlimit:10;" x1="116.369" y1="244.651" x2="105.55" y2="249.287"/>
			</g>
			<path style="fill:none;stroke:#263238;stroke-linecap:round;stroke-linejoin:round;stroke-miterlimit:10;" d="M69.381,250.298
				c0,0,2.276,2.965,3.308,5.028"/>
			
				<line style="fill:none;stroke:#263238;stroke-linecap:round;stroke-linejoin:round;stroke-miterlimit:10;" x1="143.012" y1="223.023" x2="143.782" y2="219.406"/>
			
				<line style="fill:none;stroke:#263238;stroke-linecap:round;stroke-linejoin:round;stroke-miterlimit:10;" x1="140.16" y1="236.406" x2="142.328" y2="226.23"/>
			
				<line style="fill:none;stroke:#263238;stroke-linecap:round;stroke-linejoin:round;stroke-miterlimit:10;" x1="83.806" y1="227.209" x2="82.714" y2="224.023"/>
			
				<line style="fill:none;stroke:#263238;stroke-linecap:round;stroke-linejoin:round;stroke-miterlimit:10;" x1="89.225" y1="243.021" x2="84.653" y2="229.681"/>
			<polyline style="fill:none;stroke:#263238;stroke-linecap:round;stroke-linejoin:round;stroke-miterlimit:10;" points="
				50.418,217.443 49.756,215.9 51.079,214.577 			"/>
			<path style="fill:none;stroke:#263238;stroke-linecap:round;stroke-linejoin:round;stroke-miterlimit:10;" d="M50.343,208.951
				l-4.873,4.189c0,0-0.427,0.769,0.342,1.368"/>
			<path style="fill:none;stroke:#263238;stroke-linecap:round;stroke-linejoin:round;stroke-miterlimit:10;" d="M218.658,247.211
				l-3.307,1.323c0,0,0.661,4.41-4.851,5.292"/>
			
				<line style="fill:none;stroke:#263238;stroke-linecap:round;stroke-linejoin:round;stroke-miterlimit:10;" x1="228.69" y1="253.203" x2="220.201" y2="251.621"/>
			
				<line style="fill:none;stroke:#263238;stroke-linecap:round;stroke-linejoin:round;stroke-miterlimit:10;" x1="228.8" y1="256.471" x2="220.863" y2="254.928"/>
			
				<line style="fill:none;stroke:#263238;stroke-linecap:round;stroke-linejoin:round;stroke-miterlimit:10;" x1="225.714" y1="259.779" x2="219.76" y2="258.897"/>
			<path style="fill:none;stroke:#263238;stroke-linecap:round;stroke-linejoin:round;stroke-miterlimit:10;" d="M220.863,250.739
				c0,0,0,6.394-1.984,9.481"/>
		</g>
		<g>
			<path style="fill:#FFFFFF;stroke:#263238;stroke-linecap:round;stroke-linejoin:round;stroke-miterlimit:10;" d="
				M122.961,195.173l-3.307-21.168c0,0-7.938,9.702-16.978,9.481c0,0,1.323,6.395,1.544,9.922c0.12,1.923-1.396,3.121-2.801,3.817
				c1.979,4.187,7.719,14.987,13.606,13.382c5.039-1.374,7.856-9.936,9.113-15.073C123.402,195.32,122.961,195.173,122.961,195.173z
				"/>
			<path style="fill:#263238;stroke:#263238;stroke-linecap:round;stroke-linejoin:round;stroke-miterlimit:10;" d="
				M120.102,180.099l-1.132-5.318c-2.104,2.292-8.82,8.888-16.295,8.706c0,0,1.323,6.395,1.544,9.922
				c0.003,0.054-0.007,0.102-0.006,0.155c2.43,0.646,5.692,0.852,8.596-1.223C118.279,188.434,120.102,180.099,120.102,180.099z"/>
		</g>
		<g>
			<path style="fill:#263238;stroke:#263238;stroke-linecap:round;stroke-linejoin:round;stroke-miterlimit:10;" d="M91.951,148.166
				c0,0-10.804-0.661-12.568,8.6c-1.764,9.261,6.615,11.466,6.615,11.466s-1.103,4.41,2.867,7.938
				c3.969,3.528,13.671,10.363,24.475,7.938c10.804-2.425,20.065-13.45,19.624-20.065c-0.441-6.615-3.528-7.938-3.528-7.938
				s5.512-7.277-0.882-15.876c-6.394-8.599-34.398-7.717-38.808-1.985C85.336,143.976,91.951,148.166,91.951,148.166z"/>
			<g>
				<path style="fill:#FFFFFF;stroke:#263238;stroke-linecap:round;stroke-linejoin:round;stroke-miterlimit:10;" d="
					M100.126,155.444l-8.989,7.448c0,0,1.541,12.842,5.394,17.979c3.853,5.137,10.634,10.637,15.514,8.839
					c4.88-1.798,9.657-9.867,9.657-18.086s-1.541-12.328-1.541-12.328S104.749,159.297,100.126,155.444z"/>
				<path style="fill:none;stroke:#263238;stroke-linecap:round;stroke-linejoin:round;stroke-miterlimit:10;" d="M110.994,165.411
					c0,0,4.05-0.9,5.7,0"/>
				<path style="fill:none;stroke:#263238;stroke-linecap:round;stroke-linejoin:round;stroke-miterlimit:10;" d="M97.494,169.161
					c0,0,1.5-3.15,5.25-2.25"/>
				<path style="fill:none;stroke:#263238;stroke-linecap:round;stroke-linejoin:round;stroke-miterlimit:10;" d="M94.943,164.211
					c0,0,1.2-3.45,5.55-3"/>
				<path style="fill:none;stroke:#263238;stroke-linecap:round;stroke-linejoin:round;stroke-miterlimit:10;" d="M108.894,160.011
					c0,0,3.6-2.25,7.35,0.9"/>
				<path style="fill:none;stroke:#263238;stroke-linecap:round;stroke-linejoin:round;stroke-miterlimit:10;" d="M103.944,178.161
					c0,0,6.6,3.3,10.2-2.85"/>
				<path style="fill:none;stroke:#263238;stroke-linecap:round;stroke-linejoin:round;stroke-miterlimit:10;" d="M105.594,172.011
					c0,0,2.4,1.95,4.65-0.9"/>
				<path style="fill:#FFFFFF;stroke:#263238;stroke-linecap:round;stroke-linejoin:round;stroke-miterlimit:10;" d="
					M121.044,163.161c0,0,1.95-3.9,3.75-1.05c1.8,2.85-3,8.55-3,8.55L121.044,163.161z"/>
				<path style="fill:none;stroke:#263238;stroke-linecap:round;stroke-linejoin:round;stroke-miterlimit:10;" d="M91.794,167.211
					c0,0-3.9-1.5-3.6,3c0.3,4.5,5.85,4.95,5.85,4.95L91.794,167.211z"/>
			</g>
		</g>
	</g>
</g>
<g id="Speech_Bubble">
	<g>
		<path style="fill:#263238;" d="M81.749,121.48V95.356c0-3.908-3.168-7.075-7.075-7.075H42.564c-3.908,0-7.075,3.168-7.075,7.075
			v26.124c0,3.908,3.168,7.075,7.075,7.075h25.177l12.92,11.429l-5.498-11.454C78.842,128.278,81.749,125.222,81.749,121.48z"/>
		<g>
			<path style="fill:#FFFFFF;" d="M56.207,95.855v-1.732h2.997v1.732c2.597,0.533,3.929,2.53,3.929,5.693v0.732h-3.463v-0.965
				c0-1.665-0.666-2.297-1.831-2.297c-1.166,0-1.831,0.632-1.831,2.297c0,4.795,7.158,5.027,7.158,11.687
				c0,3.163-1.365,5.194-3.962,5.727v1.698h-2.997v-1.698c-2.63-0.533-3.962-2.564-3.962-5.727v-1.598h3.463v1.831
				c0,1.664,0.732,2.264,1.898,2.264c1.165,0,1.897-0.6,1.897-2.264c0-4.795-7.158-5.027-7.158-11.687
				C52.345,98.419,53.643,96.421,56.207,95.855z"/>
		</g>
	</g>
</g>
<g id="Device">
	<g>
		<rect x="222.421" y="69.604" style="fill:#92E3A9;" width="208.099" height="385.51"/>
		<rect x="222.421" y="69.604" style="fill:#FFFFFF;" width="208.099" height="24.017"/>
		<polygon style="opacity:0.3;fill:#FFFFFF;" points="367.243,69.604 222.421,322.254 222.421,412.647 419.057,69.604 		"/>
		<polygon style="opacity:0.3;fill:#FFFFFF;" points="430.52,227.503 427.079,225.019 301.905,446.139 305.319,455.114 
			430.52,455.114 		"/>
		<path style="fill:#263238;" d="M436.768,145.453c1.42,0,2.571-1.151,2.571-2.57v-25.705c0-1.42-1.151-2.571-2.571-2.571
			c-0.165,0-0.326,0.019-0.482,0.049V66.574c0-9.153-7.42-16.574-16.574-16.574H237.056c-9.153,0-16.574,7.42-16.574,16.574v387.989
			c0,9.153,7.42,16.574,16.574,16.574h182.656c9.153,0,16.574-7.42,16.574-16.574V218.521c0.156,0.03,0.317,0.049,0.482,0.049
			c1.42,0,2.571-1.151,2.571-2.571v-25.705c0-1.42-1.151-2.571-2.571-2.571c-0.165,0-0.326,0.019-0.482,0.049v-5.809
			c0.156,0.03,0.317,0.049,0.482,0.049c1.42,0,2.571-1.151,2.571-2.571v-25.705c0-1.42-1.151-2.57-2.571-2.57
			c-0.165,0-0.326,0.019-0.482,0.049v-5.809C436.442,145.434,436.603,145.453,436.768,145.453z M426.688,446.139H230.08V78.6
			h196.608V446.139z"/>
		<path style="fill:#263238;stroke:#263238;stroke-linecap:round;stroke-linejoin:round;stroke-miterlimit:10;" d="M412.085,187.602
			H244.963c-3.521,0-6.376-2.855-6.376-6.376v-56.826c0-3.521,2.855-6.376,6.376-6.376h167.122c3.521,0,6.376,2.855,6.376,6.376
			v56.826C418.461,184.747,415.606,187.602,412.085,187.602z"/>
		<g>
			<g>
				<path style="fill:#FFFFFF;" d="M314.407,125.909v10.11h-0.664v-10.11H314.407z"/>
				<path style="fill:#FFFFFF;" d="M316.167,136.019h-0.606v-10.11h0.867l3.033,8.536v-8.536h0.606v10.11h-0.736l-3.164-9.012
					V136.019z"/>
				<path style="fill:#FFFFFF;" d="M325.524,128.378v0.838h-0.635v-0.881c0-1.083-0.419-1.907-1.531-1.907
					c-1.113,0-1.531,0.824-1.531,1.907v5.258c0,1.083,0.419,1.892,1.531,1.892c1.112,0,1.531-0.809,1.531-1.892v-1.199h0.635v1.155
					c0,1.459-0.635,2.556-2.181,2.556c-1.545,0-2.181-1.097-2.181-2.556v-5.171c0-1.459,0.636-2.556,2.181-2.556
					C324.888,125.822,325.524,126.92,325.524,128.378z"/>
				<path style="fill:#FFFFFF;" d="M326.561,128.378c0-1.473,0.679-2.556,2.21-2.556c1.56,0,2.238,1.083,2.238,2.556v5.171
					c0,1.474-0.679,2.556-2.238,2.556c-1.531,0-2.21-1.083-2.21-2.556V128.378z M327.225,133.593c0,1.098,0.433,1.906,1.546,1.906
					c1.126,0,1.574-0.809,1.574-1.906v-5.258c0-1.097-0.448-1.907-1.574-1.907c-1.113,0-1.546,0.809-1.546,1.907V133.593z"/>
				<path style="fill:#FFFFFF;" d="M335.498,136.004h-0.665l-2.138-8.94v8.955h-0.592v-10.11h0.954l2.122,8.94l2.108-8.94h0.954
					v10.11h-0.635v-8.984L335.498,136.004z"/>
				<path style="fill:#FFFFFF;" d="M342.816,130.588v0.607h-2.759v4.217h3.322v0.607h-3.985v-10.11h3.985v0.607h-3.322v4.073
					H342.816z"/>
			</g>
			<g>
				<path style="fill:#FFFFFF;" d="M283.438,150.387v-1.435h2.484v1.435c2.152,0.441,3.256,2.097,3.256,4.719v0.607h-2.871v-0.801
					c0-1.379-0.552-1.904-1.517-1.904c-0.966,0-1.517,0.525-1.517,1.904c0,3.974,5.933,4.167,5.933,9.686
					c0,2.622-1.132,4.305-3.283,4.747v1.408h-2.484v-1.408c-2.18-0.441-3.284-2.125-3.284-4.747v-1.325h2.87v1.518
					c0,1.38,0.607,1.876,1.573,1.876c0.966,0,1.573-0.496,1.573-1.876c0-3.974-5.933-4.167-5.933-9.686
					C280.237,152.513,281.313,150.857,283.438,150.387z"/>
				<path style="fill:#FFFFFF;" d="M293.124,152.623c2.345,0,2.87-1.132,3.339-2.429h2.042v19.317h-3.036v-14.736h-2.345V152.623z"
					/>
				<path style="fill:#FFFFFF;" d="M304.906,163.274v1.794c0,1.38,0.607,1.876,1.574,1.876c0.966,0,1.573-0.496,1.573-1.876v-4.25
					c0-1.38-0.607-1.904-1.573-1.904c-0.967,0-1.574,0.524-1.574,1.904v0.579h-2.87l0.552-11.204h8.003v2.759h-5.27l-0.249,4.609
					c0.552-0.911,1.435-1.407,2.649-1.407c2.235,0,3.366,1.573,3.366,4.415v4.305c0,3.09-1.545,4.856-4.525,4.856
					s-4.526-1.766-4.526-4.856v-1.601H304.906z"/>
				<path style="fill:#FFFFFF;" d="M313.102,169.511v-2.925h2.925v2.622l-1.324,3.063h-1.241l0.799-2.759H313.102z"/>
				<path style="fill:#FFFFFF;" d="M318.041,154.996c0-3.256,1.49-5.022,4.637-5.022c2.98,0,4.525,1.766,4.525,4.857v0.496h-2.87
					v-0.69c0-1.38-0.607-1.904-1.573-1.904c-1.076,0-1.684,0.524-1.684,2.373v3.532c0.525-1.104,1.463-1.711,2.815-1.711
					c2.234,0,3.366,1.573,3.366,4.415v3.532c0,3.09-1.628,4.856-4.609,4.856c-2.98,0-4.609-1.766-4.609-4.856V154.996z
					 M321.077,161.591v3.477c0,1.38,0.607,1.876,1.573,1.876c0.966,0,1.573-0.496,1.573-1.876v-3.477
					c0-1.38-0.607-1.904-1.573-1.904C321.684,159.687,321.077,160.211,321.077,161.591z"/>
				<path style="fill:#FFFFFF;" d="M338.076,150.194v2.649l-4.47,16.668h-3.036l4.442-16.558h-6.043v-2.759H338.076z"/>
				<path style="fill:#FFFFFF;" d="M344.45,169.732c-3.063,0-4.746-1.766-4.746-4.856v-1.518c0-1.849,0.552-3.284,1.876-4.029
					c-1.269-0.69-1.876-1.987-1.876-3.891v-0.607c0-3.091,1.682-4.857,4.746-4.857c3.064,0,4.747,1.766,4.747,4.857v0.607
					c0,1.904-0.634,3.201-1.876,3.891c1.324,0.745,1.876,2.18,1.876,4.029v1.518C349.196,167.966,347.514,169.732,344.45,169.732z
					 M342.739,156.017c0,1.545,0.718,2.042,1.711,2.042c0.967,0,1.712-0.497,1.712-2.042v-1.076c0-1.738-0.745-2.208-1.712-2.208
					c-0.966,0-1.711,0.469-1.711,2.208V156.017z M344.45,166.972c0.967,0,1.684-0.469,1.712-2.18v-1.794
					c0-1.518-0.635-2.18-1.712-2.18c-1.075,0-1.711,0.662-1.711,2.18v1.794C342.739,166.503,343.484,166.972,344.45,166.972z"/>
				<path style="fill:#FFFFFF;" d="M353.943,166.586v2.925h-2.925v-2.925H353.943z"/>
				<path style="fill:#FFFFFF;" d="M360.594,152.733c-0.967,0-1.574,0.524-1.574,1.904v2.07h-2.87v-1.876
					c0-3.091,1.546-4.857,4.526-4.857c2.98,0,4.526,1.766,4.526,4.857c0,6.071-6.043,8.334-6.043,11.507
					c0,0.138,0,0.276,0.027,0.414h5.739v2.76h-8.775v-2.373c0-5.685,6.016-6.623,6.016-12.197
					C362.166,153.202,361.559,152.733,360.594,152.733z"/>
				<path style="fill:#FFFFFF;" d="M366.885,154.996c0-3.256,1.49-5.022,4.637-5.022c2.981,0,4.525,1.766,4.525,4.857v0.496h-2.87
					v-0.69c0-1.38-0.607-1.904-1.573-1.904c-1.076,0-1.684,0.524-1.684,2.373v3.532c0.525-1.104,1.463-1.711,2.815-1.711
					c2.234,0,3.366,1.573,3.366,4.415v3.532c0,3.09-1.628,4.856-4.609,4.856s-4.609-1.766-4.609-4.856V154.996z M369.921,161.591
					v3.477c0,1.38,0.607,1.876,1.573,1.876s1.573-0.496,1.573-1.876v-3.477c0-1.38-0.607-1.904-1.573-1.904
					S369.921,160.211,369.921,161.591z"/>
			</g>
		</g>
		<g>
			<path style="fill:#D9D9D9;stroke:#263238;stroke-linecap:round;stroke-linejoin:round;stroke-miterlimit:10;" d="
				M412.772,422.044H244.275c-3.521,0-6.376-2.855-6.376-6.376V212.237c0-3.521,2.855-6.376,6.376-6.376h168.497
				c3.522,0,6.376,2.855,6.376,6.376v203.431C419.148,419.189,416.293,422.044,412.772,422.044z"/>
			<path style="fill:#FFFFFF;stroke:#263238;stroke-linecap:round;stroke-linejoin:round;stroke-miterlimit:10;" d="
				M417.385,285.942h-75.912v-52.929H237.899c0,0,0,0,0,0v59.503V415.47v6.574c0,0,0,0,0,0h6.574h92.189h80.723
				c0.974,0,1.763-0.789,1.763-1.763V287.704C419.148,286.731,418.359,285.942,417.385,285.942z"/>
			<g>
				<g>
					
						<rect x="249.364" y="347.806" style="fill:#92E3A9;stroke:#263238;stroke-linecap:round;stroke-linejoin:round;stroke-miterlimit:10;" width="15.079" height="36.431"/>
					
						<rect x="273.659" y="324.435" style="fill:#263238;stroke:#263238;stroke-linecap:round;stroke-linejoin:round;stroke-miterlimit:10;" width="15.079" height="59.803"/>
					
						<rect x="297.953" y="343.682" style="fill:#92E3A9;stroke:#263238;stroke-linecap:round;stroke-linejoin:round;stroke-miterlimit:10;" width="15.08" height="40.556"/>
					
						<rect x="322.248" y="337.299" style="fill:#263238;stroke:#263238;stroke-linecap:round;stroke-linejoin:round;stroke-miterlimit:10;" width="15.079" height="46.939"/>
					
						<rect x="346.543" y="334.746" style="fill:#92E3A9;stroke:#263238;stroke-linecap:round;stroke-linejoin:round;stroke-miterlimit:10;" width="15.08" height="49.492"/>
					
						<rect x="370.838" y="302.439" style="fill:#263238;stroke:#263238;stroke-linecap:round;stroke-linejoin:round;stroke-miterlimit:10;" width="15.079" height="81.799"/>
					
						<rect x="395.133" y="312.063" style="fill:#92E3A9;stroke:#263238;stroke-linecap:round;stroke-linejoin:round;stroke-miterlimit:10;" width="15.079" height="72.175"/>
				</g>
				<g>
					<path style="fill:#263238;" d="M253.8,395.323v0.185h-0.544v-0.223c0-0.915-0.346-1.607-1.287-1.607
						c-0.939,0-1.286,0.68-1.286,1.595c0,2.102,3.128,2.139,3.128,4.526c0,1.249-0.544,2.164-1.867,2.164s-1.868-0.915-1.868-2.164
						v-0.445h0.545v0.482c0,0.927,0.359,1.595,1.31,1.595c0.952,0,1.311-0.668,1.311-1.595c0-2.078-3.128-2.116-3.128-4.526
						c0-1.299,0.569-2.14,1.843-2.152C253.269,393.159,253.8,394.075,253.8,395.323z"/>
					<path style="fill:#263238;" d="M255.274,399.8c0,0.927,0.346,1.644,1.298,1.644c0.953,0,1.299-0.717,1.299-1.644v-6.567h0.532
						v6.542c0,1.237-0.52,2.189-1.843,2.189c-1.323,0-1.855-0.952-1.855-2.189v-6.542h0.569V399.8z"/>
					<path style="fill:#263238;" d="M259.901,401.889h-0.52v-8.656h0.742l2.597,7.309v-7.309h0.52v8.656h-0.63l-2.709-7.716V401.889
						z"/>
				</g>
				<g>
					<path style="fill:#263238;" d="M276.294,401.877h-0.569l-1.831-7.654v7.667h-0.506v-8.656h0.816l1.817,7.655l1.805-7.655h0.817
						v8.656h-0.544v-7.692L276.294,401.877z"/>
					<path style="fill:#263238;" d="M279.598,395.348c0-1.261,0.581-2.188,1.892-2.188c1.336,0,1.917,0.927,1.917,2.188v4.427
						c0,1.262-0.581,2.189-1.917,2.189c-1.311,0-1.892-0.927-1.892-2.189V395.348z M280.167,399.812
						c0,0.939,0.372,1.632,1.323,1.632c0.965,0,1.348-0.693,1.348-1.632v-4.501c0-0.94-0.384-1.632-1.348-1.632
						c-0.951,0-1.323,0.692-1.323,1.632V399.812z"/>
					<path style="fill:#263238;" d="M284.869,401.889h-0.519v-8.656h0.741l2.597,7.309v-7.309h0.52v8.656h-0.63l-2.709-7.716
						V401.889z"/>
				</g>
				<g>
					<path style="fill:#263238;" d="M300.837,401.889v-8.137h-1.756v-0.52h4.093v0.52h-1.768v8.137H300.837z"/>
					<path style="fill:#263238;" d="M304.426,399.8c0,0.927,0.346,1.644,1.299,1.644c0.953,0,1.298-0.717,1.298-1.644v-6.567h0.533
						v6.542c0,1.237-0.52,2.189-1.843,2.189c-1.323,0-1.856-0.952-1.856-2.189v-6.542h0.569V399.8z"/>
					<path style="fill:#263238;" d="M311.465,397.241v0.519h-2.362v3.611h2.845v0.52h-3.414v-8.656h3.414v0.52h-2.845v3.488H311.465
						z"/>
				</g>
				<g>
					<path style="fill:#263238;" d="M324.718,401.889h-0.791l-1.398-8.656h0.557l1.299,7.89l1.261-7.853h0.606l1.212,7.828
						l1.249-7.865h0.508l-1.385,8.656h-0.742l-1.162-7.086L324.718,401.889z"/>
					<path style="fill:#263238;" d="M333.032,397.241v0.519h-2.362v3.611h2.844v0.52h-3.413v-8.656h3.413v0.52h-2.844v3.488H333.032
						z"/>
					<path style="fill:#263238;" d="M336.349,393.233c1.335,0,1.916,0.878,1.916,2.152v4.353c0,1.274-0.581,2.152-1.916,2.152
						h-1.905v-8.656H336.349z M336.337,401.37c0.964,0,1.359-0.655,1.359-1.607v-4.402c0-0.953-0.408-1.608-1.359-1.608h-1.324
						v7.617H336.337z"/>
				</g>
				<g>
					<path style="fill:#263238;" d="M348.01,401.889v-8.137h-1.756v-0.52h4.093v0.52h-1.768v8.137H348.01z"/>
					<path style="fill:#263238;" d="M351.624,397.822v4.068h-0.569v-8.656h0.569v4.069h2.695v-4.069h0.581v8.656h-0.581v-4.068
						H351.624z"/>
					<path style="fill:#263238;" d="M356.437,399.8c0,0.927,0.346,1.644,1.298,1.644c0.952,0,1.299-0.717,1.299-1.644v-6.567h0.532
						v6.542c0,1.237-0.52,2.189-1.843,2.189c-1.323,0-1.855-0.952-1.855-2.189v-6.542h0.569V399.8z"/>
				</g>
				<g>
					<path style="fill:#263238;" d="M376.061,397.45v0.52h-2.238v3.92h-0.568v-8.656h3.289v0.52h-2.721v3.697H376.061z"/>
					<path style="fill:#263238;" d="M379.216,393.233c1.323,0,1.855,0.73,1.855,1.954v0.754c0,1.014-0.396,1.595-1.249,1.793
						c0.89,0.197,1.249,0.829,1.249,1.768v1.348c0,0.358,0.025,0.754,0.21,1.038h-0.593c-0.149-0.26-0.186-0.569-0.186-1.038v-1.36
						c0-1.15-0.63-1.472-1.62-1.472h-0.902v3.871h-0.569v-8.656H379.216z M378.895,397.499c1.014,0,1.607-0.284,1.607-1.446v-0.817
						c0-0.927-0.358-1.484-1.298-1.484h-1.224v3.747H378.895z"/>
					<path style="fill:#263238;" d="M382.756,393.233v8.656h-0.569v-8.656H382.756z"/>
				</g>
				<g>
					<path style="fill:#263238;" d="M402.226,395.323v0.185h-0.544v-0.223c0-0.915-0.346-1.607-1.286-1.607
						c-0.94,0-1.286,0.68-1.286,1.595c0,2.102,3.128,2.139,3.128,4.526c0,1.249-0.545,2.164-1.868,2.164
						c-1.323,0-1.867-0.915-1.867-2.164v-0.445h0.544v0.482c0,0.927,0.358,1.595,1.311,1.595c0.953,0,1.311-0.668,1.311-1.595
						c0-2.078-3.129-2.116-3.129-4.526c0-1.299,0.569-2.14,1.843-2.152C401.695,393.159,402.226,394.075,402.226,395.323z"/>
					<path style="fill:#263238;" d="M403.985,399.973l-0.433,1.916h-0.52l1.892-8.669h0.829l1.929,8.669h-0.569l-0.433-1.916
						H403.985z M404.072,399.478h2.522l-1.274-5.601L404.072,399.478z"/>
					<path style="fill:#263238;" d="M409.54,401.889v-8.137h-1.756v-0.52h4.093v0.52h-1.768v8.137H409.54z"/>
				</g>
			</g>
			<g>
				<path style="fill:#263238;" d="M291.868,216.188v0.217h-0.635v-0.26c0-1.069-0.404-1.878-1.501-1.878
					c-1.099,0-1.502,0.794-1.502,1.863c0,2.455,3.654,2.499,3.654,5.286c0,1.458-0.635,2.527-2.181,2.527
					c-1.546,0-2.181-1.069-2.181-2.527v-0.52h0.635v0.563c0,1.083,0.419,1.863,1.532,1.863c1.112,0,1.53-0.78,1.53-1.863
					c0-2.427-3.654-2.47-3.654-5.286c0-1.516,0.665-2.499,2.152-2.513C291.247,213.66,291.868,214.729,291.868,216.188z"/>
				<path style="fill:#263238;" d="M295.042,213.747c1.56,0,2.167,0.982,2.167,2.455v1.098c0,1.603-0.737,2.397-2.34,2.397h-1.257
					v4.16h-0.664v-10.11H295.042z M294.869,219.091c1.17,0,1.676-0.52,1.676-1.748v-1.184c0-1.098-0.376-1.805-1.502-1.805h-1.43
					v4.737H294.869z"/>
				<path style="fill:#263238;" d="M301.626,218.426v0.607h-2.759v4.217h3.322v0.607h-3.985v-10.11h3.985v0.607h-3.322v4.072
					H301.626z"/>
				<path style="fill:#263238;" d="M303.876,223.857h-0.606v-10.11h0.866l3.033,8.536v-8.536h0.607v10.11h-0.737l-3.163-9.012
					V223.857z"/>
				<path style="fill:#263238;" d="M311.137,213.747c1.561,0,2.239,1.026,2.239,2.513v5.084c0,1.488-0.679,2.513-2.239,2.513h-2.223
					v-10.11H311.137z M311.123,223.25c1.127,0,1.589-0.765,1.589-1.877v-5.142c0-1.112-0.476-1.877-1.589-1.877h-1.546v8.896
					H311.123z"/>
				<path style="fill:#263238;" d="M315.135,213.747v10.11h-0.665v-10.11H315.135z"/>
				<path style="fill:#263238;" d="M316.895,223.857h-0.606v-10.11h0.867l3.033,8.536v-8.536h0.606v10.11h-0.736l-3.164-9.012
					V223.857z"/>
				<path style="fill:#263238;" d="M326.252,216.216v0.751h-0.635v-0.794c0-1.083-0.419-1.907-1.53-1.907
					c-1.113,0-1.532,0.824-1.532,1.907v5.258c0,1.083,0.419,1.892,1.532,1.892c1.112,0,1.53-0.809,1.53-1.892v-2.181h-1.343v-0.607
					h1.979v2.744c0,1.459-0.635,2.557-2.181,2.557c-1.545,0-2.181-1.098-2.181-2.557v-5.171c0-1.458,0.636-2.556,2.181-2.556
					C325.616,213.66,326.252,214.758,326.252,216.216z"/>
				<path style="fill:#263238;" d="M333.859,216.188v0.217h-0.635v-0.26c0-1.069-0.405-1.878-1.502-1.878s-1.502,0.794-1.502,1.863
					c0,2.455,3.654,2.499,3.654,5.286c0,1.458-0.635,2.527-2.181,2.527c-1.545,0-2.181-1.069-2.181-2.527v-0.52h0.636v0.563
					c0,1.083,0.419,1.863,1.531,1.863c1.112,0,1.53-0.78,1.53-1.863c0-2.427-3.654-2.47-3.654-5.286
					c0-1.516,0.665-2.499,2.153-2.513C333.238,213.66,333.859,214.729,333.859,216.188z"/>
				<path style="fill:#263238;" d="M335.575,221.416c0,1.083,0.405,1.921,1.517,1.921c1.113,0,1.516-0.838,1.516-1.921v-7.669h0.621
					v7.64c0,1.444-0.606,2.557-2.152,2.557s-2.167-1.112-2.167-2.557v-7.64h0.664V221.416z"/>
				<path style="fill:#263238;" d="M343.761,223.842h-0.664l-2.138-8.94v8.954h-0.592v-10.11h0.954l2.123,8.94l2.108-8.94h0.954
					v10.11h-0.635v-8.984L343.761,223.842z"/>
				<path style="fill:#263238;" d="M351.05,223.842h-0.665l-2.137-8.94v8.954h-0.592v-10.11h0.953l2.124,8.94l2.108-8.94h0.954
					v10.11h-0.636v-8.984L351.05,223.842z"/>
				<path style="fill:#263238;" d="M355.914,221.618l-0.505,2.239h-0.607l2.21-10.124h0.968l2.253,10.124h-0.664l-0.506-2.239
					H355.914z M356.015,221.04h2.946l-1.487-6.542L356.015,221.04z"/>
				<path style="fill:#263238;" d="M363.348,213.747c1.545,0,2.166,0.852,2.166,2.282v0.881c0,1.185-0.462,1.863-1.458,2.094
					c1.039,0.231,1.458,0.968,1.458,2.065v1.574c0,0.419,0.029,0.881,0.246,1.213h-0.693c-0.174-0.303-0.217-0.665-0.217-1.213
					v-1.588c0-1.343-0.736-1.719-1.892-1.719h-1.054v4.52h-0.664v-10.11H363.348z M362.973,218.73c1.184,0,1.877-0.332,1.877-1.69
					v-0.953c0-1.083-0.419-1.733-1.516-1.733h-1.43v4.376H362.973z"/>
				<path style="fill:#263238;" d="M368.747,219.972l-2.268-6.225h0.693l1.935,5.315l1.935-5.315h0.651l-2.283,6.225v3.885h-0.664
					V219.972z"/>
			</g>
			<g>
				<g>
					<path style="fill:#263238;" d="M247.164,251.352h-0.924l-1.632-10.11h0.649l1.516,9.214l1.474-9.171h0.707l1.416,9.142
						l1.459-9.186h0.592l-1.618,10.11h-0.866l-1.358-8.276L247.164,251.352z"/>
					<path style="fill:#263238;" d="M256.864,245.921v0.607h-2.759v4.218h3.322v0.607h-3.985v-10.11h3.985v0.607h-3.322v4.072
						H256.864z"/>
					<path style="fill:#263238;" d="M261.931,245.921v0.607h-2.759v4.218h3.322v0.607h-3.985v-10.11h3.985v0.607h-3.322v4.072
						H261.931z"/>
					<path style="fill:#263238;" d="M264.933,246.6l-0.694,1.098v3.654h-0.664v-10.11h0.664v5.344l3.294-5.344h0.693l-2.889,4.708
						l3.077,5.402h-0.694L264.933,246.6z"/>
					<path style="fill:#263238;" d="M269.406,251.352v-10.11h0.665v9.503h3.177v0.607H269.406z"/>
					<path style="fill:#263238;" d="M275.427,247.467l-2.268-6.225h0.694l1.935,5.315l1.935-5.315h0.65l-2.282,6.225v3.885h-0.665
						V247.467z"/>
				</g>
				<g>
					<path style="fill:#263238;" d="M247.197,261.755v-1.032h1.787v1.032c1.549,0.317,2.342,1.509,2.342,3.395v0.436h-2.064v-0.575
						c0-0.993-0.398-1.37-1.092-1.37c-0.695,0-1.092,0.378-1.092,1.37c0,2.859,4.268,2.998,4.268,6.969
						c0,1.886-0.814,3.097-2.362,3.415v1.012h-1.787v-1.012c-1.569-0.318-2.363-1.529-2.363-3.415v-0.953h2.065v1.091
						c0,0.993,0.437,1.35,1.132,1.35c0.695,0,1.132-0.358,1.132-1.35c0-2.859-4.268-2.998-4.268-6.969
						C244.894,263.284,245.669,262.093,247.197,261.755z"/>
					<path style="fill:#263238;" d="M259.229,272.06c0,2.343-1.072,3.614-3.336,3.614c-2.144,0-3.256-1.271-3.256-3.495v-0.357
						h2.065v0.496c0,0.993,0.437,1.37,1.132,1.37c0.774,0,1.211-0.378,1.211-1.708v-2.542c-0.378,0.794-1.052,1.231-2.025,1.231
						c-1.609,0-2.423-1.132-2.423-3.177v-2.542c0-2.224,1.171-3.495,3.316-3.495s3.316,1.271,3.316,3.495V272.06z M257.045,267.315
						v-2.501c0-0.993-0.437-1.351-1.132-1.351c-0.695,0-1.132,0.358-1.132,1.351v2.501c0,0.993,0.437,1.37,1.132,1.37
						C256.608,268.685,257.045,268.307,257.045,267.315z"/>
					<path style="fill:#263238;" d="M260.498,264.952c0-2.224,1.172-3.495,3.316-3.495c2.145,0,3.316,1.271,3.316,3.495v7.227
						c0,2.224-1.171,3.495-3.316,3.495c-2.144,0-3.316-1.271-3.316-3.495V264.952z M262.682,272.318c0,0.993,0.437,1.37,1.132,1.37
						c0.695,0,1.132-0.378,1.132-1.37v-7.504c0-0.993-0.437-1.371-1.132-1.371c-0.695,0-1.132,0.378-1.132,1.371V272.318z"/>
					<path style="fill:#263238;" d="M268.36,264.952c0-2.224,1.172-3.495,3.316-3.495c2.145,0,3.316,1.271,3.316,3.495v7.227
						c0,2.224-1.171,3.495-3.316,3.495c-2.144,0-3.316-1.271-3.316-3.495V264.952z M270.544,272.318c0,0.993,0.437,1.37,1.132,1.37
						c0.695,0,1.132-0.378,1.132-1.37v-7.504c0-0.993-0.437-1.371-1.132-1.371c-0.695,0-1.132,0.378-1.132,1.371V272.318z"/>
					<path style="fill:#263238;" d="M278.506,273.41v2.104h-2.104v-2.104H278.506z"/>
					<path style="fill:#263238;" d="M283.23,275.674c-2.203,0-3.414-1.271-3.414-3.495v-1.091c0-1.33,0.397-2.363,1.35-2.899
						c-0.914-0.496-1.35-1.43-1.35-2.799v-0.437c0-2.224,1.211-3.495,3.414-3.495c2.204,0,3.415,1.271,3.415,3.495v0.437
						c0,1.369-0.457,2.303-1.35,2.799c0.954,0.536,1.35,1.569,1.35,2.899v1.091C286.646,274.403,285.435,275.674,283.23,275.674z
						 M282,265.806c0,1.112,0.516,1.469,1.23,1.469c0.695,0,1.231-0.357,1.231-1.469v-0.775c0-1.251-0.537-1.588-1.231-1.588
						c-0.695,0-1.23,0.337-1.23,1.588V265.806z M283.23,273.688c0.695,0,1.211-0.337,1.231-1.569v-1.291
						c0-1.091-0.457-1.568-1.231-1.568c-0.774,0-1.23,0.476-1.23,1.568v1.291C282,273.351,282.536,273.688,283.23,273.688z"/>
					<path style="fill:#263238;" d="M294.369,272.06c0,2.343-1.072,3.614-3.336,3.614c-2.144,0-3.256-1.271-3.256-3.495v-0.357
						h2.065v0.496c0,0.993,0.437,1.37,1.132,1.37c0.774,0,1.211-0.378,1.211-1.708v-2.542c-0.378,0.794-1.052,1.231-2.025,1.231
						c-1.609,0-2.423-1.132-2.423-3.177v-2.542c0-2.224,1.171-3.495,3.316-3.495c2.144,0,3.316,1.271,3.316,3.495V272.06z
						 M292.185,267.315v-2.501c0-0.993-0.437-1.351-1.132-1.351c-0.695,0-1.132,0.358-1.132,1.351v2.501
						c0,0.993,0.437,1.37,1.132,1.37C291.748,268.685,292.185,268.307,292.185,267.315z"/>
				</g>
			</g>
			<g>
				<g>
					<path style="fill:#263238;" d="M352.613,251.337h-0.665l-2.137-8.94v8.954h-0.593v-10.11h0.954l2.124,8.94l2.108-8.94h0.953
						v10.11h-0.636v-8.984L352.613,251.337z"/>
					<path style="fill:#263238;" d="M356.465,243.712c0-1.473,0.679-2.556,2.21-2.556c1.56,0,2.238,1.083,2.238,2.556v5.171
						c0,1.474-0.679,2.557-2.238,2.557c-1.531,0-2.21-1.083-2.21-2.557V243.712z M357.13,248.926c0,1.098,0.433,1.906,1.546,1.906
						c1.126,0,1.574-0.809,1.574-1.906v-5.258c0-1.098-0.448-1.907-1.574-1.907c-1.113,0-1.546,0.809-1.546,1.907V248.926z"/>
					<path style="fill:#263238;" d="M362.614,251.352h-0.606v-10.11h0.867l3.033,8.535v-8.535h0.606v10.11h-0.736l-3.164-9.012
						V251.352z"/>
					<path style="fill:#263238;" d="M369.357,251.352v-9.503h-2.051v-0.607h4.781v0.607h-2.066v9.503H369.357z"/>
					<path style="fill:#263238;" d="M373.571,246.6v4.752h-0.665v-10.11h0.665v4.752h3.149v-4.752h0.679v10.11h-0.679V246.6H373.571
						z"/>
					<path style="fill:#263238;" d="M378.551,251.352v-10.11h0.665v9.503h3.177v0.607H378.551z"/>
					<path style="fill:#263238;" d="M384.571,247.467l-2.268-6.225h0.694l1.935,5.315l1.935-5.315h0.65l-2.282,6.225v3.885h-0.665
						V247.467z"/>
				</g>
				<g>
					<path style="fill:#263238;" d="M351.679,261.755v-1.032h1.787v1.032c1.549,0.317,2.342,1.509,2.342,3.395v0.436h-2.064v-0.575
						c0-0.993-0.398-1.37-1.092-1.37c-0.695,0-1.092,0.378-1.092,1.37c0,2.859,4.268,2.998,4.268,6.969
						c0,1.886-0.814,3.097-2.362,3.415v1.012h-1.787v-1.012c-1.569-0.318-2.363-1.529-2.363-3.415v-0.953h2.065v1.091
						c0,0.993,0.437,1.35,1.132,1.35c0.695,0,1.132-0.358,1.132-1.35c0-2.859-4.268-2.998-4.268-6.969
						C349.376,263.284,350.151,262.093,351.679,261.755z"/>
					<path style="fill:#263238;" d="M358.648,263.363c1.688,0,2.064-0.814,2.402-1.747h1.469v13.898h-2.184v-10.603h-1.688V263.363z
						"/>
					<path style="fill:#263238;" d="M364.981,264.952c0-2.224,1.172-3.495,3.316-3.495c2.145,0,3.316,1.271,3.316,3.495v7.227
						c0,2.224-1.171,3.495-3.316,3.495c-2.144,0-3.316-1.271-3.316-3.495V264.952z M367.165,272.318c0,0.993,0.437,1.37,1.132,1.37
						c0.695,0,1.132-0.378,1.132-1.37v-7.504c0-0.993-0.437-1.371-1.132-1.371c-0.695,0-1.132,0.378-1.132,1.371V272.318z"/>
					<path style="fill:#263238;" d="M373.022,275.515v-2.104h2.104v1.886l-0.953,2.204h-0.893l0.576-1.986H373.022z"/>
					<path style="fill:#263238;" d="M379.91,263.443c-0.695,0-1.131,0.378-1.131,1.371v1.488h-2.065v-1.349
						c0-2.224,1.112-3.495,3.256-3.495c2.144,0,3.255,1.271,3.255,3.495c0,4.368-4.348,5.996-4.348,8.279c0,0.1,0,0.199,0.02,0.298
						h4.129v1.986h-6.313v-1.708c0-4.09,4.328-4.765,4.328-8.776C381.042,263.78,380.606,263.443,379.91,263.443z"/>
					<path style="fill:#263238;" d="M384.397,264.952c0-2.224,1.172-3.495,3.316-3.495c2.145,0,3.316,1.271,3.316,3.495v7.227
						c0,2.224-1.171,3.495-3.316,3.495c-2.144,0-3.316-1.271-3.316-3.495V264.952z M386.581,272.318c0,0.993,0.437,1.37,1.132,1.37
						c0.695,0,1.132-0.378,1.132-1.37v-7.504c0-0.993-0.437-1.371-1.132-1.371c-0.695,0-1.132,0.378-1.132,1.371V272.318z"/>
					<path style="fill:#263238;" d="M392.259,264.952c0-2.224,1.172-3.495,3.316-3.495c2.145,0,3.316,1.271,3.316,3.495v7.227
						c0,2.224-1.171,3.495-3.316,3.495c-2.144,0-3.316-1.271-3.316-3.495V264.952z M394.443,272.318c0,0.993,0.437,1.37,1.132,1.37
						s1.132-0.378,1.132-1.37v-7.504c0-0.993-0.437-1.371-1.132-1.371s-1.132,0.378-1.132,1.371V272.318z"/>
					<path style="fill:#263238;" d="M402.404,273.41v2.104H400.3v-2.104H402.404z"/>
					<path style="fill:#263238;" d="M405.958,271.028v1.29c0,0.993,0.437,1.35,1.132,1.35c0.695,0,1.132-0.357,1.132-1.35v-3.057
						c0-0.993-0.437-1.37-1.132-1.37c-0.695,0-1.132,0.378-1.132,1.37v0.417h-2.065l0.398-8.061h5.758v1.986h-3.792l-0.179,3.316
						c0.398-0.656,1.033-1.013,1.906-1.013c1.608,0,2.423,1.132,2.423,3.177v3.097c0,2.224-1.112,3.495-3.256,3.495
						c-2.145,0-3.256-1.271-3.256-3.495v-1.151H405.958z"/>
				</g>
			</g>
		</g>
	</g>
</g>
<g id="Floor">
	<g>
		<line style="fill:none;stroke:#263238;stroke-miterlimit:10;" x1="454" y1="471.198" x2="485" y2="471.198"/>
		<line style="fill:none;stroke:#263238;stroke-miterlimit:10;" x1="21" y1="471.198" x2="445" y2="471.198"/>
	</g>
</g>
</svg>
